<mxfile host="app.diagrams.net" modified="2023-09-27T12:04:43.616Z" agent="Mozilla/5.0 (Windows NT 10.0; Win64; x64; rv:109.0) Gecko/20100101 Firefox/117.0" etag="Q1rvM9TgTHVQvD0D9J6m" version="21.8.0" type="github">
  <diagram name="Page-1" id="_MTYcoZ_pEvMErZoWSPA">
    <mxGraphModel dx="954" dy="574" grid="1" gridSize="10" guides="1" tooltips="1" connect="1" arrows="1" fold="1" page="1" pageScale="1" pageWidth="850" pageHeight="1100" math="0" shadow="0">
      <root>
        <mxCell id="0" />
        <mxCell id="1" parent="0" />
        <mxCell id="V4VUdm72Drd0ob-0342w-1" value="" style="ellipse;whiteSpace=wrap;html=1;" parent="1" vertex="1">
          <mxGeometry x="40" y="280" width="40" height="40" as="geometry" />
        </mxCell>
        <mxCell id="V4VUdm72Drd0ob-0342w-2" value="&lt;div&gt;Browse Items&lt;/div&gt;" style="rounded=0;whiteSpace=wrap;html=1;" parent="1" vertex="1">
          <mxGeometry x="270" y="285" width="100" height="25" as="geometry" />
        </mxCell>
        <mxCell id="V4VUdm72Drd0ob-0342w-3" value="" style="endArrow=classic;html=1;rounded=0;exitX=1;exitY=0.5;exitDx=0;exitDy=0;" parent="1" edge="1" source="d6Z9JfRjja-w33k6rZPQ-6">
          <mxGeometry width="50" height="50" relative="1" as="geometry">
            <mxPoint x="220" y="300" as="sourcePoint" />
            <mxPoint x="270" y="299.5" as="targetPoint" />
          </mxGeometry>
        </mxCell>
        <mxCell id="V4VUdm72Drd0ob-0342w-4" value="" style="endArrow=classic;html=1;rounded=0;entryX=0;entryY=0.5;entryDx=0;entryDy=0;exitX=1;exitY=0.5;exitDx=0;exitDy=0;" parent="1" edge="1" target="V4VUdm72Drd0ob-0342w-7" source="d6Z9JfRjja-w33k6rZPQ-2">
          <mxGeometry width="50" height="50" relative="1" as="geometry">
            <mxPoint x="640" y="300" as="sourcePoint" />
            <mxPoint x="670" y="299.5" as="targetPoint" />
          </mxGeometry>
        </mxCell>
        <mxCell id="V4VUdm72Drd0ob-0342w-7" value="" style="ellipse;whiteSpace=wrap;html=1;" parent="1" vertex="1">
          <mxGeometry x="680" y="280" width="40" height="40" as="geometry" />
        </mxCell>
        <mxCell id="d6Z9JfRjja-w33k6rZPQ-1" value="" style="endArrow=classic;html=1;rounded=0;entryX=0;entryY=0.5;entryDx=0;entryDy=0;" edge="1" parent="1" target="d6Z9JfRjja-w33k6rZPQ-2">
          <mxGeometry width="50" height="50" relative="1" as="geometry">
            <mxPoint x="540" y="299.5" as="sourcePoint" />
            <mxPoint x="590" y="299.5" as="targetPoint" />
          </mxGeometry>
        </mxCell>
        <mxCell id="d6Z9JfRjja-w33k6rZPQ-2" value="" style="rhombus;whiteSpace=wrap;html=1;" vertex="1" parent="1">
          <mxGeometry x="600" y="280" width="30" height="40" as="geometry" />
        </mxCell>
        <mxCell id="d6Z9JfRjja-w33k6rZPQ-3" value="View Item" style="rounded=0;whiteSpace=wrap;html=1;" vertex="1" parent="1">
          <mxGeometry x="450" y="285" width="90" height="25" as="geometry" />
        </mxCell>
        <mxCell id="d6Z9JfRjja-w33k6rZPQ-5" value="" style="endArrow=classic;html=1;rounded=0;entryX=0;entryY=0.5;entryDx=0;entryDy=0;" edge="1" parent="1" target="d6Z9JfRjja-w33k6rZPQ-3">
          <mxGeometry width="50" height="50" relative="1" as="geometry">
            <mxPoint x="370" y="297" as="sourcePoint" />
            <mxPoint x="420" y="297" as="targetPoint" />
          </mxGeometry>
        </mxCell>
        <mxCell id="d6Z9JfRjja-w33k6rZPQ-6" value="" style="rhombus;whiteSpace=wrap;html=1;" vertex="1" parent="1">
          <mxGeometry x="160" y="280" width="30" height="40" as="geometry" />
        </mxCell>
        <mxCell id="d6Z9JfRjja-w33k6rZPQ-8" value="" style="endArrow=classic;html=1;rounded=0;exitX=1;exitY=0.5;exitDx=0;exitDy=0;" edge="1" parent="1">
          <mxGeometry width="50" height="50" relative="1" as="geometry">
            <mxPoint x="80" y="300" as="sourcePoint" />
            <mxPoint x="160" y="299.5" as="targetPoint" />
          </mxGeometry>
        </mxCell>
        <mxCell id="d6Z9JfRjja-w33k6rZPQ-10" value="" style="endArrow=none;html=1;rounded=0;" edge="1" parent="1">
          <mxGeometry width="50" height="50" relative="1" as="geometry">
            <mxPoint x="615" y="278" as="sourcePoint" />
            <mxPoint x="614.5" y="207.5" as="targetPoint" />
          </mxGeometry>
        </mxCell>
        <mxCell id="d6Z9JfRjja-w33k6rZPQ-11" value="" style="endArrow=none;html=1;rounded=0;" edge="1" parent="1">
          <mxGeometry width="50" height="50" relative="1" as="geometry">
            <mxPoint x="170" y="210" as="sourcePoint" />
            <mxPoint x="620" y="210" as="targetPoint" />
          </mxGeometry>
        </mxCell>
        <mxCell id="d6Z9JfRjja-w33k6rZPQ-12" value="" style="endArrow=classic;html=1;rounded=0;entryX=0.5;entryY=0;entryDx=0;entryDy=0;" edge="1" parent="1" target="d6Z9JfRjja-w33k6rZPQ-6">
          <mxGeometry width="50" height="50" relative="1" as="geometry">
            <mxPoint x="175" y="210" as="sourcePoint" />
            <mxPoint x="230" y="160" as="targetPoint" />
          </mxGeometry>
        </mxCell>
      </root>
    </mxGraphModel>
  </diagram>
</mxfile>
